PathFileType	4	(X/Y/Z)	C:\Users\WrightLab\Desktop\Jo\P3_4.trc
DataRate	CameraRate	NumFrames	NumMarkers	Units	OrigDataRate	OrigDataStartFrame	OrigNumFrames
100.00	100.00	       13	19	mm	100.00	240	       639
Frame#	Time	Headset_Front			Headset_Back			Headset_Left			Headset_Right			Left_Shoulder			Right_Shoulder			Sternum			C7			Left Elbow			Right Elbow			Left Wrist			Right Wrist			Left ASIS			Right ASIS			S2			Left Knee			Right Knee			Left Ankle			Right Ankle			
		X1	Y1	Z1	X2	Y2	Z2	X3	Y3	Z3	X4	Y4	Z4	X5	Y5	Z5	X6	Y6	Z6	X7	Y7	Z7	X8	Y8	Z8	X9	Y9	Z9	X10	Y10	Z10	X11	Y11	Z11	X12	Y12	Z12	X13	Y13	Z13	X14	Y14	Z14	X15	Y15	Z15	X16	Y16	Z16	X17	Y17	Z17	X18	Y18	Z18	X19	Y19	Z19	

240	2.390	-461.13608	1498.06506	144.29388				-453.08087	1534.78333	-62.78992	-606.92969	1533.53613	104.83976	-426.68570	1307.04248	-139.48378	-736.02942	1338.16870	32.68004	-523.61694	1196.68164	53.54341	-610.83929	1375.23584	-96.73582	-396.65674	972.55389	-184.06712	-837.88196	1005.57715	95.14178	-367.17484	787.44354	-93.39305	-761.06799	838.03485	237.77464	-473.92303	837.03107	-11.30375	-702.35297	855.59943	95.83435	-671.44641	927.76074	-153.54362	-406.29871	464.94739	100.14915	-759.34161	425.89960	3.15640	-398.37326	139.01453	161.49957	-812.63239	103.89600	-109.33742	
241	2.400	-454.79849	1496.48218	150.78569				-447.77670	1533.60645	-56.02767	-601.66870	1532.60461	112.21871	-421.95581	1305.71082	-132.79259	-731.18317	1336.78064	40.33267	-519.25348	1195.34998	60.30676	-604.94122	1373.49194	-88.68699	-392.17282	971.24530	-178.12630	-831.64862	1004.12549	103.04395	-363.86234	785.24939	-87.44464	-754.02502	838.33032	246.48352	-468.47046	836.92639	-3.51817	-698.12714	855.68457	103.46967	-666.26898	925.80353	-145.40274	-401.86417	463.24200	104.83199	-757.26599	424.79178	7.37790	-385.38712	139.11848	173.07565	-812.14014	104.67566	-107.88168	
242	2.410	-449.54184	1495.56750	157.87027				-442.79605	1532.48938	-49.12485	-596.44720	1531.72498	119.16795	-416.72760	1304.35010	-125.73103	-725.88098	1336.09631	47.08139	-513.87250	1194.92554	68.49623	-600.38098	1373.21057	-81.94021	-388.57272	969.64423	-171.16098	-825.49493	1002.41968	112.04265	-360.13818	783.57336	-81.46119	-746.17517	837.55035	255.87253	-465.13922	834.87982	5.36715	-693.76807	854.59692	111.66496	-660.83942	924.66888	-138.05087	-397.82993	460.74814	108.98220	-755.37762	424.68201	10.79087	-372.87106	139.29556	184.08650	-811.38318	105.87828	-105.64400	
243	2.420	-443.83649	1494.54590	164.69530				-437.72034	1532.21631	-42.36390	-591.20264	1530.88855	125.88334	-411.74542	1303.22107	-118.85910	-720.86285	1335.09216	54.53189	-508.96112	1193.23657	75.61003	-595.04742	1371.74060	-75.08288	-384.17297	968.31122	-164.84192	-819.16272	1001.03021	119.64468	-356.74557	781.64288	-75.51774	-738.52289	837.22015	263.48721	-459.94540	833.86737	13.03805	-689.68829	853.85919	119.91203	-655.62250	923.30450	-130.39635	-393.20993	459.17429	114.30337	-752.09979	423.84183	15.91029	-361.06537	140.20132	194.14436	-810.79407	106.84055	-103.91273	
244	2.430	-438.41104	1493.31177	171.71739				-432.65042	1531.15137	-35.70760	-585.36450	1529.95239	133.14639	-406.42047	1301.99463	-111.25551	-715.32581	1334.01721	61.71651	-503.15552	1192.44702	83.26998	-589.84491	1370.83313	-67.21596	-380.42780	967.02277	-158.48390	-812.71350	999.76855	127.48521	-353.33694	779.92407	-69.99246	-731.06708	837.08478	272.12259	-454.61005	833.59216	21.16443	-683.99164	852.74133	128.34377	-650.32916	923.14624	-122.88961	-388.70969	457.98825	119.53768	-748.56342	423.76859	21.57777	-352.22913	140.31386	202.06255	-810.35748	107.57908	-102.63934	
245	2.440	-433.14481	1492.42847	178.84676				-426.64093	1530.23059	-29.34175	-579.50836	1528.84888	140.65150	-401.00229	1300.49768	-103.91182	-709.89301	1332.93213	69.06377	-497.20242	1192.56104	91.74459	-584.17346	1369.86169	-60.47309	-376.36597	965.73267	-152.10146	-806.32892	998.54700	135.01646	-349.00479	778.04401	-63.80268	-723.00201	836.82880	279.86633	-449.59906	832.49469	29.28079	-679.17981	851.14429	135.67986	-644.36896	921.07489	-114.67085	-383.76303	457.03683	125.70518	-745.72211	424.06335	26.30805	-343.71185	139.98871	208.74637	-809.87701	108.46374	-101.26501	
246	2.450	-427.30835	1491.89063	185.73602				-420.96289	1529.94397	-20.96010	-573.70154	1528.30994	147.99666	-394.80884	1299.53674	-96.84119	-704.13660	1332.37769	75.98773	-491.34320	1191.21069	98.35484	-578.19165	1369.10083	-52.76802	-371.66840	964.35168	-144.85919	-799.71259	997.48969	142.77771	-345.17981	776.75055	-57.63446	-716.04767	836.07788	287.17929	-444.07516	830.95972	37.73216	-673.58130	850.72998	145.60393	-637.81378	919.78595	-106.73814	-377.86682	456.19730	132.56236	-741.85413	423.35733	30.78229	-335.81964	138.99394	214.65004	-809.68347	110.02003	-99.59826	
247	2.460	-421.86945	1491.52734	192.99947				-415.63232	1529.47839	-14.52228	-568.21136	1527.95068	154.89926	-388.97061	1298.25891	-89.23965	-698.43622	1331.66138	82.99384	-485.15417	1190.94800	106.09339	-572.32172	1368.14136	-45.55863	-367.89813	963.59076	-138.31493	-793.07312	996.20416	149.80396	-340.33316	775.19958	-51.21328	-707.97461	836.21649	294.72858	-438.42896	830.56238	45.65910	-667.39587	849.49109	153.68581	-632.78564	919.95465	-98.22025	-371.96957	455.29733	138.08453	-739.19098	422.73514	36.15187	-330.15097	137.59203	218.54643	-809.11920	112.03755	-98.76134	
248	2.470	-416.43353	1491.46936	200.24602				-410.10809	1528.21936	-6.49167	-562.23169	1527.11951	162.05765	-383.16718	1297.25928	-81.75485	-692.26965	1330.99597	91.27798	-479.36874	1190.18201	114.40639	-566.37665	1367.73303	-37.81525	-362.43149	962.38989	-131.83690	-786.25977	995.50146	156.25627	-335.89511	773.87354	-45.19478	-700.99414	835.67896	301.93829	-432.03607	830.06995	54.09171	-660.91797	847.60394	161.45543	-626.51569	918.98407	-89.16841	-365.73984	454.76529	145.09995	-734.63568	422.55228	41.52975	-325.97086	134.66890	222.08310	-808.75598	114.19786	-96.13830	
249	2.480	-410.63202	1491.47485	207.25377				-403.92224	1528.59485	0.52536	-556.36749	1527.02600	169.13701	-377.20795	1296.40784	-75.12804	-685.87378	1330.43982	99.70200	-472.73111	1190.27405	121.83101	-559.72089	1366.19409	-29.42407	-357.26501	961.49640	-124.75867	-779.27820	994.38080	163.15587	-331.50296	772.95313	-38.70992	-693.27057	835.30536	308.57211	-425.26688	829.73846	61.14501	-653.17444	847.00977	172.05728	-620.48376	918.74109	-80.86565	-359.80853	454.04669	151.66071	-729.88770	422.12436	47.91150	-322.77039	131.97357	224.35503	-807.61108	115.39525	-95.12966	
250	2.490	-404.61380	1491.43738	214.12395				-398.39130	1528.41223	6.30051	-550.49762	1526.40417	175.62085	-370.97842	1296.01062	-68.36338	-678.86566	1329.92200	107.68777	-466.01776	1189.36938	129.24088	-553.46686	1365.63782	-22.39404	-353.13449	960.48639	-117.71339	-772.70752	993.97998	169.70151	-326.11954	771.88129	-32.55759	-685.46332	834.33740	315.45047	-417.77698	829.30316	69.52026	-645.28131	845.59076	180.92857	-614.67590	918.70081	-72.23274	-353.83966	453.26480	159.43513	-725.12036	422.35220	53.28850	-320.73825	128.32349	225.35699	-806.16748	118.27770	-90.91090	
251	2.500	-398.20767	1491.73120	220.61234				-392.21558	1528.77332	12.95156	-543.98676	1525.21838	184.70157	-364.60739	1294.87939	-60.74467	-672.19373	1329.84753	115.14357	-458.97787	1189.35791	137.50372	-547.28076	1365.31128	-15.01584	-348.29398	960.00165	-111.51789	-765.93481	993.33655	176.90367	-320.93402	770.65436	-25.74989	-677.97955	833.59344	321.49274	-410.17780	829.32568	77.16544	-637.44440	844.94312	189.39197	-608.31561	918.30823	-62.46393	-348.02933	452.17029	167.45164	-719.33972	421.49686	61.09963	-318.45105	125.60898	226.58963	-804.31049	120.71936	-88.40324	
252	2.510	-392.53372	1491.86548	227.60353				-386.05994	1528.70215	21.37182	-538.17426	1525.03711	191.29671	-358.45511	1294.49963	-54.79535	-664.89813	1329.50134	124.16609	-451.70078	1189.56091	145.36307	-540.92035	1365.31470	-7.46303	-341.86581	959.16364	-103.69460	-759.40887	993.31586	182.48520	-315.28677	769.90601	-19.65012	-671.59674	833.30981	328.30981	-402.48523	829.12897	85.06392	-629.75415	842.99231	195.58818	-602.13910	918.12488	-52.24755	-342.44278	450.86331	173.84354	-713.16638	421.49039	68.23952	-315.08734	124.51245	230.06285	-803.20734	122.77250	-85.25456	
